{
  "accessors": [
    {
      "bufferView": 2,
      "componentType": 5126,
      "count": 3174,
      "max": [
        3.3988099098205566,
        1.3108299970626831,
        1.4837900400161743
      ],
      "min": [
        -1.2852300405502319,
        -1.3207800388336182,
        -0.30052998661994934
      ],
      "type": "VEC3"
    },
    {
      "bufferView": 2,
      "byteOffset": 38088,
      "componentType": 5126,
      "count": 3174,
      "max": [
        1,
        1,
        0.98042857646942139
      ],
      "min": [
        -1,
        -1,
        -1
      ],
      "type": "VEC3"
    },
    {
      "bufferView": 3,
      "componentType": 5126,
      "count": 3174,
      "max": [
        0.99998390674591064,
        1,
        0.99999910593032837,
        1
      ],
      "min": [
        -0.9993404746055603,
        -1,
        -0.99948877096176147,
        -1
      ],
      "type": "VEC4"
    },
    {
      "bufferView": 1,
      "componentType": 5126,
      "count": 3174,
      "max": [
        0.90442001819610596,
        0.66140002012252808
      ],
      "min": [
        0.070960000157356262,
        0.021889999508857727
      ],
      "type": "VEC2"
    },
    {
      "bufferView": 0,
      "componentType": 5125,
      "count": 9966,
      "max": [
        3173
      ],
      "min": [
        0
      ],
      "type": "SCALAR"
    }
  ],
  "asset": {
    "extras": {
      "author": "compostthesecond (https://sketchfab.com/compostthesecond)",
      "license": "CC-BY-NC-4.0 (http://creativecommons.org/licenses/by-nc/4.0/)",
      "source": "https://sketchfab.com/models/8397d23c1b1c40ea867ca1a44667be37",
      "title": "jukebox"
    },
    "generator": "Sketchfab-3.20.7",
    "version": "2.0"
  },
  "bufferViews": [
    {
      "buffer": 0,
      "byteLength": 39864,
      "byteOffset": 0,
      "name": "floatBufferViews",
      "target": 34963
    },
    {
      "buffer": 0,
      "byteLength": 25392,
      "byteOffset": 39864,
      "byteStride": 8,
      "name": "floatBufferViews",
      "target": 34962
    },
    {
      "buffer": 0,
      "byteLength": 76176,
      "byteOffset": 65256,
      "byteStride": 12,
      "name": "floatBufferViews",
      "target": 34962
    },
    {
      "buffer": 0,
      "byteLength": 50784,
      "byteOffset": 141432,
      "byteStride": 16,
      "name": "floatBufferViews",
      "target": 34962
    }
  ],
  "buffers": [
    {
      "byteLength": 192216,
      "uri": "scene.bin"
    }
  ],
  "images": [
    {
      "uri": "textures/jukeboxwrap_baseColor.jpg"
    }
  ],
  "materials": [
    {
      "doubleSided": true,
      "emissiveFactor": [
        0,
        0,
        0
      ],
      "name": "jukeboxwrap",
      "pbrMetallicRoughness": {
        "baseColorFactor": [
          1,
          1,
          1,
          1
        ],
        "baseColorTexture": {
          "index": 0,
          "texCoord": 0
        },
        "metallicFactor": 0,
        "roughnessFactor": 0
      }
    }
  ],
  "meshes": [
    {
      "name": "jukebox_0",
      "primitives": [
        {
          "attributes": {
            "NORMAL": 1,
            "POSITION": 0,
            "TANGENT": 2,
            "TEXCOORD_0": 3
          },
          "indices": 4,
          "material": 0,
          "mode": 4
        }
      ]
    }
  ],
  "nodes": [
    {
      "children": [
        1
      ],
      "name": "RootNode (gltf orientation matrix)",
      "rotation": [
        -0.70710678118654746,
        -0,
        -0,
        0.70710678118654757
      ]
    },
    {
      "children": [
        2
      ],
      "name": "RootNode (model correction matrix)"
    },
    {
      "children": [
        3
      ],
      "name": "Root"
    },
    {
      "children": [
        4
      ],
      "matrix": [
        0,
        0,
        -2.9027799999999999,
        0,
        -2.9027799999999999,
        -0,
        -0,
        0,
        -0,
        2.9027799999999999,
        0,
        0,
        -0.18709000000000003,
        -3.6808200000000002,
        9.6881299999999992,
        1
      ],
      "name": "jukebox"
    },
    {
      "mesh": 0,
      "name": "jukebox_0"
    }
  ],
  "samplers": [
    {
      "magFilter": 9729,
      "minFilter": 9987,
      "wrapS": 10497,
      "wrapT": 10497
    }
  ],
  "scene": 0,
  "scenes": [
    {
      "name": "OSG_Scene",
      "nodes": [
        0
      ]
    }
  ],
  "textures": [
    {
      "sampler": 0,
      "source": 0
    }
  ]
}

